<svg id="Слой_3" data-name="Слой 3" xmlns="http://www.w3.org/2000/svg" viewBox="0 0 325.61 986"><defs><style>.cls-1{fill:#fff;stroke:#1b1464;stroke-miterlimit:10;stroke-width:4px;}</style></defs><title>TSUKI</title><path class="cls-1" d="M1034,341s1-33,15-33,15,14,15,14,34-3,61-3,75,6,75,6,3-20,13-20,12,11,12,11l4,323s4,80,7,100,5,32,5,32,0,10-6,11-17,0-20-9-16-57-17-85-8-215-6-236H1068s-1,158-1,167-7,70-17,100a482.55,482.55,0,0,1-23,56s-8,10-18,7-7-19-7-23,21-57,24-92,7-68,7-119S1034,341,1034,341Zm33,11v17h129V352s-30-2-68-2S1067,352,1067,352Zm0,48v19h127V400Z" transform="translate(-964.87 -303)"/><path class="cls-1" d="M1108,847c-5,0-10-4-10-16s12-13,17-13h148.15a18,18,0,0,1,16.66,10.67c5.38,12.53-9.24,18.12-9.79,18.32h-56.89a.13.13,0,0,0-.13.13v19.74a.12.12,0,0,0,.12.13c1.75,0,21.68,0,38.88,1,17.94,1,20,16.9,20,17h0c0,.14,2,29,1,45s-27.3,19.47-27.5,19.5h0c-.2,0-26,1-30.5,1.5s-3,9.83-3,10h0c0,.59,1,111,0,120s-3,18-11,27a.09.09,0,0,0,0,.1c1.08,10,24,35,38,57.94s46,96,49,105c2.9,8.7-8.23,13.67-9,14a.11.11,0,0,1-.08,0c-.65-.15-9.11-2.14-13-6-4-4-10-17-15-25s-36-62-47-82-35-49-46-62-26-29-39-55-14-64-14-64,2-107,2-121,7-19,13-19,9.82,5.73,10,6l0,0,3,9.89a.14.14,0,0,0,.13.09h46.77a.13.13,0,0,0,.13-.13V847.13a.13.13,0,0,0-.13-.13H1108Zm30,50.14,2,21.74a.13.13,0,0,0,.13.12h95.75a.13.13,0,0,0,.13-.13V897.13a.13.13,0,0,0-.13-.13h-97.73A.14.14,0,0,0,1138,897.14Zm4,87.86c0,12-1,25,7,47,7.88,21.67,22.55,35.58,37.33,57a.12.12,0,0,0,.22-.11c-5.55-14-5.55-33.91-5.55-33.91l2-103.87a.13.13,0,0,0-.13-.13h-40.74a.13.13,0,0,0-.13.13Z" transform="translate(-964.87 -303)"/><path class="cls-1" d="M1019,823c1-6,7-12,14-12s10,10,10,10v16h41c11,0,15,0,17,11,2,8-3,63-5,87s-29,88-39,101-1,18-1,18,47,33,52,37,3,12,0,17-13,4-13,4a76.65,76.65,0,0,1-29-14,152.2,152.2,0,0,0-27-17c-6,8-24,87-27,105s-4,71-4,85-6,16-11,16-8-5-10-18-5-63-5-81,6-47,11-73,17-57,17-57-23-21-31-30-13-27-12-36,20-55,20-55,23-66,23-68-26.5-1.5-26.5-1.5S972,866,972,854c0-16,15-17,15-17h30S1018,829,1019,823Zm3,125c-7,22-21,45-18,53s19,22,19,22,23-51,32-72,22-81,22-81h-36C1040,884,1029,926,1022,948Z" transform="translate(-964.87 -303)"/></svg>